HIERARCHY
ROOT Hips
{
 OFFSET 0.000000 0.000000 0.000000
 CHANNELS 6 Xposition Yposition Zposition Yrotation Xrotation Zrotation
 JOINT Chest
 {
  OFFSET 0.000000 12.778769 -0.025672
  CHANNELS 3 Yrotation Xrotation Zrotation
  JOINT Chest2
  {
   OFFSET 0.000000 9.048585 0.046633
   CHANNELS 3 Yrotation Xrotation Zrotation
   JOINT Chest3
   {
    OFFSET 0.000000 8.173956 0.000000
    CHANNELS 3 Yrotation Xrotation Zrotation
    JOINT Chest4
    {
     OFFSET 0.000000 8.173956 0.000000
     CHANNELS 3 Yrotation Xrotation Zrotation
     JOINT Neck
     {
      OFFSET 0.000000 11.254521 0.000000
      CHANNELS 3 Yrotation Xrotation Zrotation
      JOINT Head
      {
       OFFSET 0.000000 7.627541 0.110895
       CHANNELS 3 Yrotation Xrotation Zrotation
       End Site
       {
        OFFSET 0.000000 14.324091 0.057923
       }
      }
     }
     JOINT RightCollar
     {
      OFFSET -2.416021 6.309018 0.000000
      CHANNELS 3 Yrotation Xrotation Zrotation
      JOINT RightShoulder
      {
       OFFSET -12.309578 0.000000 0.000000
       CHANNELS 3 Yrotation Xrotation Zrotation
       JOINT RightElbow
       {
        OFFSET -26.817880 0.000000 0.000000
        CHANNELS 3 Yrotation Xrotation Zrotation
        JOINT RightWrist
        {
         OFFSET -22.046493 0.000000 0.005727
         CHANNELS 3 Yrotation Xrotation Zrotation
         End Site
         {
          OFFSET -16.516461 0.000000 0.000000
         }
        }
       }
      }
     }
     JOINT LeftCollar
     {
      OFFSET 2.416021 6.309018 0.000000
      CHANNELS 3 Yrotation Xrotation Zrotation
      JOINT LeftShoulder
      {
       OFFSET 12.309578 0.000000 0.000000
       CHANNELS 3 Yrotation Xrotation Zrotation
       JOINT LeftElbow
       {
        OFFSET 26.817880 0.000000 0.000000
        CHANNELS 3 Yrotation Xrotation Zrotation
        JOINT LeftWrist
        {
         OFFSET 22.046493 0.000000 0.005727
         CHANNELS 3 Yrotation Xrotation Zrotation
         End Site
         {
          OFFSET 16.516461 0.000000 0.000000
         }
        }
       }
      }
     }
    }
   }
  }
 }
 JOINT RightHip
 {
  OFFSET -10.582077 0.125794 0.012836
  CHANNELS 3 Yrotation Xrotation Zrotation
  JOINT RightKnee
  {
   OFFSET 0.000000 -43.218284 0.001140
   CHANNELS 3 Yrotation Xrotation Zrotation
   JOINT RightAnkle
   {
    OFFSET 0.000000 -37.342314 0.092095
    CHANNELS 3 Yrotation Xrotation Zrotation
    JOINT RightToe
    {
     OFFSET 0.000000 -11.963287 17.799678
     CHANNELS 3 Yrotation Xrotation Zrotation
     End Site
     {
      OFFSET 0.000000 -1.355498 5.291052
     }
    }
   }
  }
 }
 JOINT LeftHip
 {
  OFFSET 10.582077 0.125794 0.012836
  CHANNELS 3 Yrotation Xrotation Zrotation
  JOINT LeftKnee
  {
   OFFSET 0.000000 -43.218284 0.001140
   CHANNELS 3 Yrotation Xrotation Zrotation
   JOINT LeftAnkle
   {
    OFFSET 0.000000 -37.342314 0.092095
    CHANNELS 3 Yrotation Xrotation Zrotation
    JOINT LeftToe
    {
     OFFSET 0.000000 -11.963287 17.799678
     CHANNELS 3 Yrotation Xrotation Zrotation
     End Site
     {
      OFFSET 0.000000 -1.355498 5.291052
     }
    }
   }
  }
 }
}
MOTION
Frames: 13
Frame Time: 0.016667
-118.838689 88.689896 -88.633049 -129.616454 -49.592554 -18.281670 2.116957 -8.708221 -7.976641 1.162578 -3.838280 -0.948264 1.162578 -3.838280 -0.948264 0.865646 -2.880534 -0.703623 -7.471360 21.912370 -0.740460 -13.305439 4.733936 0.739820 0.471398 12.060506 8.786589 -0.204148 18.276903 70.671913 -69.804265 20.538967 -4.299576 -24.398608 -5.903660 -14.311921 -1.831972 9.841311 -14.637106 47.772639 29.040284 -24.996076 0.617150 46.406958 -2.421909 28.158271 -5.214455 10.994191 -57.848489 78.999910 -36.554090 18.708558 -24.292381 -9.089417 -8.120839 -14.475654 1.774372 4.123335 -0.062379 3.353288 48.712958 73.271552 56.757003 -4.687376 -31.104767 -4.032330 13.100025 -4.840913 -18.108786 1.026030 -0.654959 1.410915
-119.347531 88.667405 -88.791285 -128.853409 -50.206524 -19.262794 2.189611 -8.591320 -7.585529 1.158238 -3.756197 -0.961999 1.158238 -3.756197 -0.961999 0.862450 -2.818990 -0.714116 -7.569158 22.102116 -0.718832 -13.480323 5.094308 0.787489 0.557051 11.984302 8.810426 -1.133506 18.626231 70.072522 -69.799142 21.101876 -4.945966 -24.376309 -5.807744 -14.340527 -1.979072 9.700499 -14.754617 48.320254 28.780609 -24.303366 0.223902 46.259305 -2.577384 28.088859 -5.248328 10.854418 -56.931882 80.688962 -35.924289 19.088454 -24.604093 -9.376159 -8.016636 -14.273014 1.588808 4.233721 -0.170942 3.179914 55.417437 72.787818 63.480239 -5.081719 -31.886310 -4.480474 12.602147 -4.592256 -17.775006 0.659700 -0.470971 1.170208
-119.807425 88.574494 -88.978220 -128.262811 -50.803089 -20.063437 2.203008 -8.470092 -7.213614 1.156367 -3.674624 -0.991212 1.156367 -3.674624 -0.991212 0.861013 -2.757863 -0.736196 -7.614807 22.292277 -0.671542 -13.567873 5.454499 0.866860 0.749807 11.822537 8.897211 -2.075612 19.026707 69.454835 -69.788893 21.598536 -5.601538 -24.330504 -5.728479 -14.341908 -2.074336 9.446627 -14.836966 48.994666 28.530557 -23.570047 -0.141145 46.175607 -2.710529 28.015832 -5.319676 10.727341 -56.464373 82.394039 -35.825053 19.675309 -25.202053 -9.687531 -8.026154 -13.918942 1.335863 4.474488 -0.235843 3.043224 61.666440 72.351019 69.763586 -5.392953 -32.895139 -4.972453 12.276103 -4.271722 -17.491524 0.337585 -0.365617 0.990735
-120.300846 88.408635 -89.159111 -127.612096 -51.433138 -20.502755 2.129238 -8.318295 -7.245706 1.145426 -3.624533 -1.027238 1.145426 -3.624533 -1.027238 0.852687 -2.720345 -0.763373 -7.613941 22.521497 -0.623053 -13.570008 5.883795 0.932073 1.130139 11.579768 9.063256 -3.067691 19.642055 68.815660 -69.748846 22.029303 -6.170814 -24.287603 -5.651256 -14.364162 -2.121145 9.234217 -14.921259 49.844666 28.280611 -22.744553 -0.533735 46.079738 -2.815203 27.960635 -5.469365 10.698277 -60.562464 83.939213 -40.300644 20.432710 -26.159516 -10.102881 -8.118910 -13.474730 1.148286 4.888615 -0.255067 2.936902 66.970141 72.306422 75.154490 -5.808477 -33.973125 -5.362902 12.135668 -3.919682 -17.244949 0.082188 -0.337784 0.868447
-120.911338 88.134389 -89.233535 -126.689587 -51.892693 -20.193642 1.896656 -8.246039 -8.256177 1.133117 -3.594195 -1.064624 1.133117 -3.594195 -1.064624 0.843293 -2.697640 -0.791538 -7.581500 22.739630 -0.584487 -13.512960 6.289248 0.972195 1.587330 11.444129 9.229506 -4.089441 20.217951 68.192088 -69.714521 22.452089 -6.729770 -24.279612 -5.555418 -14.382640 -2.172757 8.988262 -15.035848 50.871530 28.035251 -21.798469 -0.941081 45.955050 -2.889423 27.925620 -5.542704 10.708814 -73.666092 84.589849 -53.604718 21.497999 -27.409391 -10.628386 -8.706610 -13.164273 0.844872 5.802573 -0.099733 3.098075 69.868278 73.221162 78.228190 -6.180437 -34.895916 -5.563693 11.891730 -3.720230 -17.202026 0.156524 -0.279718 0.960811
-121.583186 87.775547 -89.219061 -125.636153 -52.159960 -19.342905 1.706416 -8.252172 -9.877804 1.172133 -3.565530 -1.077683 1.172133 -3.565530 -1.077683 0.872524 -2.676235 -0.801158 -7.652627 22.903588 -0.603988 -13.629329 6.595776 0.940072 1.747989 11.358725 9.217182 -5.187719 20.731643 67.559785 -69.702214 22.894019 -7.338693 -24.305791 -5.506007 -14.384780 -2.505646 8.763311 -15.311667 51.869355 27.756464 -20.899996 -1.264538 45.903418 -2.960223 27.850621 -5.522651 10.682775 -90.029372 84.255755 -70.007885 22.779777 -28.890364 -11.301506 -9.659278 -12.897343 0.412384 7.023975 0.159008 3.531899 70.924248 75.026096 79.500509 -6.143163 -35.688563 -5.708349 11.511152 -3.668726 -17.255028 0.433341 -0.164745 1.153114
-122.134530 87.378549 -89.228212 -124.960264 -52.392403 -18.644135 1.690626 -8.312894 -11.049289 1.226941 -3.521615 -1.091775 1.226941 -3.521615 -1.091775 0.913622 -2.643425 -0.811499 -7.753329 23.016341 -0.628420 -13.799765 6.809148 0.911365 1.716632 11.273162 9.191785 -6.333416 21.175640 66.892063 -69.679745 23.340114 -8.021080 -24.347837 -5.515820 -14.364139 -2.946749 8.506991 -15.569669 52.762989 27.472018 -20.106132 -1.472510 45.988614 -3.079273 27.741910 -5.464928 10.618490 -104.462727 83.999196 -84.597504 23.967493 -30.690287 -12.050572 -10.362779 -12.397904 -0.029154 8.062842 0.390046 3.970282 72.728869 76.657527 81.323937 -5.788428 -36.560654 -5.854021 11.268973 -3.686103 -17.104393 0.364453 0.067649 1.108141
-122.519293 86.915451 -89.269402 -124.692981 -52.407568 -18.156294 1.812125 -8.586638 -11.657690 1.311203 -3.477922 -1.103181 1.311203 -3.477922 -1.103181 0.976819 -2.610832 -0.819666 -7.914517 23.098678 -0.666930 -14.076614 6.969165 0.875551 1.427346 11.141064 9.151067 -7.414607 21.661736 66.199643 -69.596993 23.680405 -8.652595 -24.350424 -5.504099 -14.309967 -3.554452 8.270205 -15.830289 53.533380 27.205123 -19.461919 -1.571120 46.147960 -3.226696 27.672373 -5.425922 10.566757 -116.942228 83.910056 -97.291643 25.010794 -32.843503 -12.997002 -10.445266 -11.589818 -0.164471 8.757177 0.649048 4.236206 74.861439 77.828886 83.351001 -5.350416 -37.536954 -6.020350 11.348265 -3.896066 -16.876055 0.203115 0.480827 0.981169
-122.693501 86.406069 -89.383118 -124.828402 -52.344027 -17.983354 1.994425 -9.011043 -11.626482 1.389536 -3.462327 -1.121357 1.389536 -3.462327 -1.121357 1.035479 -2.599320 -0.832886 -8.046900 23.216525 -0.690540 -14.304063 7.194442 0.855259 1.131150 11.021062 9.197067 -8.381059 22.249793 65.519071 -69.408159 23.905701 -9.135857 -24.321453 -5.449488 -14.206343 -4.073935 8.224576 -15.997004 54.150967 26.946265 -18.988154 -1.645068 46.250372 -3.355836 27.684817 -5.436385 10.558455 -129.923538 83.961133 -110.609567 26.130968 -35.116109 -13.945947 -10.007974 -10.586765 -0.254422 9.206020 0.875234 4.389972 77.631102 78.306297 85.927574 -4.977383 -38.579603 -6.250712 11.687159 -4.266206 -16.580447 -0.079673 1.068558 0.764983
-122.804638 85.863364 -89.431216 -124.971541 -52.074676 -17.589387 2.023775 -9.627542 -11.797763 1.436047 -3.498530 -1.141898 1.436047 -3.498530 -1.141898 1.070161 -2.626607 -0.847933 -8.094116 23.393852 -0.709031 -14.377217 7.523988 0.816357 1.046369 11.067118 9.269092 -9.226396 22.838288 64.912717 -69.158194 24.115210 -9.430149 -24.286258 -5.395162 -14.107347 -4.339687 8.330734 -16.141320 54.732000 26.721002 -18.551529 -1.736077 46.212054 -3.421273 27.743766 -5.491573 10.601760 -138.522322 83.603996 -119.387206 27.355155 -37.251616 -14.867407 -9.541082 -9.841403 -0.521773 9.827092 1.247309 4.757718 79.859844 78.700456 88.097027 -4.763124 -39.780514 -6.603855 12.028968 -4.842066 -16.316811 -0.314884 1.856229 0.569110
-122.738385 85.334133 -89.557447 -125.348783 -51.808843 -17.622028 2.002127 -10.246945 -11.376671 1.458580 -3.559335 -1.165398 1.458580 -3.559335 -1.165398 1.086793 -2.672311 -0.865269 -8.075347 23.581641 -0.699847 -14.338603 7.871044 0.809389 1.098961 11.202632 9.358371 -9.949529 23.365673 64.405001 -68.906575 24.349281 -9.543810 -24.210796 -5.374079 -14.075661 -4.469128 8.422583 -16.242558 55.351989 26.501702 -18.115676 -1.806194 46.095221 -3.414771 27.778179 -5.544925 10.658625 -148.995279 83.521515 -130.135432 28.550486 -39.289128 -15.890172 -8.441947 -8.951851 -0.419388 9.954688 1.567571 4.805474 82.860699 78.195245 90.933022 -4.713088 -41.097330 -7.017651 12.627319 -5.459711 -15.982416 -0.740424 2.746654 0.242137
-122.458203 84.759275 -89.631423 -126.078709 -51.133801 -18.059517 1.880202 -11.292943 -10.321500 1.451798 -3.624239 -1.183473 1.451798 -3.624239 -1.183473 1.081463 -2.721020 -0.878694 -8.021458 23.756933 -0.683222 -14.239410 8.193227 0.808411 1.258344 11.354655 9.490389 -10.526436 23.794475 63.962588 -68.676168 24.551379 -9.460322 -24.136934 -5.295281 -14.085006 -4.500098 8.567174 -16.264732 55.913825 26.231815 -17.802034 -1.823819 45.968740 -3.351316 27.746673 -5.597591 10.670171 -163.002561 84.107471 -144.521426 29.894691 -41.328975 -17.155044 -6.919797 -7.864558 0.031019 9.545014 1.977985 4.551885 84.005394 76.751869 91.745536 -4.751042 -42.396945 -7.459041 13.553493 -6.542013 -15.543575 -1.441428 4.100696 -0.294571
-122.127193 84.353748 -89.638824 -127.138548 -51.142396 -19.151024 2.025141 -11.711819 -8.320356 1.471181 -3.654278 -1.169541 1.471181 -3.654278 -1.169541 1.096015 -2.743553 -0.868057 -8.053952 23.875123 -0.699026 -14.289412 8.412551 0.776428 1.219360 11.441975 9.493757 -11.036334 24.043838 63.550102 -68.552208 24.753838 -9.327355 -24.063925 -5.166520 -14.062623 -4.690777 8.651725 -16.375648 56.388039 25.904916 -17.583618 -1.835837 45.813735 -3.264385 27.717268 -5.667715 10.642323 172.335678 83.817925 -170.057679 31.472656 -43.298274 -18.635214 -4.143100 -6.205965 1.280246 7.607488 2.032238 3.297756 87.496757 74.479151 94.517958 -4.569486 -43.507478 -8.017891 14.424954 -7.514425 -15.011519 -2.325566 5.198323 -0.982607
